<svg xmlns="http://www.w3.org/2000/svg" viewBox="0 0 216 68" fill="none">
  <path d="M98.6 47.5H88.4L94.7 20.6H104.9L98.6 47.5Z" fill="#1A1F71"/>
  <path d="M138.5 21.4C136.5 20.6 133.3 19.7 129.4 19.7C119.3 19.7 112.2 25.1 112.2 32.7C112.1 38.4 117.3 41.5 121.2 43.4C125.2 45.3 126.5 46.5 126.5 48.2C126.5 50.7 123.4 51.9 120.5 51.9C116.4 51.9 114.2 51.3 110.8 49.8L109.5 49.2L108.1 58.1C110.5 59.2 114.9 60.1 119.5 60.2C130.2 60.2 137.2 54.9 137.3 46.8C137.3 42.3 134.6 38.9 128.7 36.1C125.1 34.3 122.9 33.1 122.9 31.3C122.9 29.7 124.8 28 128.9 28C132.3 27.9 134.8 28.7 136.7 29.5L137.6 29.9L139 21.3L138.5 21.4Z" fill="#1A1F71"/>
  <path d="M152.2 19.7C149.9 19.7 148 20.9 147.1 22.9L132.4 47.5H143.1L145.1 41.9H157.9L159.1 47.5H168.6L160.3 19.7H152.2ZM148 34.6C148.8 32.4 151.8 24.4 151.8 24.4C151.7 24.6 152.6 22.2 153.1 20.8L153.8 24C153.8 24 155.8 33 156.2 34.6H148Z" fill="#1A1F71"/>
  <path d="M80.2 19.7L70.2 38.9L69.1 33.4C67.2 27.4 61.6 20.9 55.3 17.6L64.5 47.4H75.3L91.1 19.7H80.2Z" fill="#1A1F71"/>
  <path d="M61.4 19.7H45L44.9 20.5C57.7 23.7 66.3 31.7 69.1 33.4L66.3 22.8C65.8 21 63.8 19.8 61.4 19.7Z" fill="#F9A533"/>
</svg>
