<svg xmlns="http://www.w3.org/2000/svg" viewBox="0 0 750 471" role="img" aria-label="Visa">
  <rect width="750" height="471" rx="40" fill="#1A1F71"/>
  <path d="M278.2 334.5l33.5-195.8h53.6l-33.5 195.8h-53.6zM524.3 142.7c-10.6-3.9-27.2-8.1-48-8.1-52.9 0-90.2 26.5-90.5 64.4-.3 28 26.5 43.6 46.8 52.9 20.8 9.5 27.8 15.6 27.7 24.1-.1 13-16.6 18.9-32 18.9-21.4 0-32.8-2.9-50.4-10.1l-6.9-3.1-7.5 43.6c12.5 5.4 35.6 10.1 59.6 10.3 56.2 0 92.7-26.2 93.1-66.8.2-22.2-14-39.2-44.8-53.2-18.7-9.1-30.1-15.1-30-24.3 0-8.1 9.7-16.8 30.6-16.8 17.5-.3 30.1 3.5 40 7.4l4.8 2.2 7.2-43.4zM611.3 247.8l21.4-54.3c-.3.5 4.4-11.3 7.1-18.6l3.6 16.8s10.2 46.5 12.3 56.1h-44.4zm66-100.9h-41.4c-12.8 0-22.4 3.5-28 16.3l-79.5 179.4h56.2l11.2-29.1h68.7l6.3 29.1h49.6l-43.1-195.7zM232.4 146.9l-52.4 133.4-5.6-27c-9.7-31.1-40-64.9-73.9-81.8l47.9 163h56.6l84.2-187.6h-56.8z" fill="white"/>
  <path d="M152.8 146.9H67l-.7 4c66.9 16.1 111.2 55 129.5 101.6l-18.7-89.5c-3.2-12.2-12.5-15.8-24.3-16.1z" fill="#F9A533"/>
</svg>
